<svg width="43" height="63" viewBox="0 0 43 63" fill="none" xmlns="http://www.w3.org/2000/svg">
<g clip-path="url(#clip0)">
<path d="M42.9987 21.6876C43.0503 25.7716 41.6127 29.4545 39.9978 33.0644C35.3754 43.3904 29.2059 52.7451 22.7881 61.944C22.0177 63.0512 21.2667 63.5252 20.3222 62.1595C13.2759 51.9794 6.49709 41.66 1.69102 30.081C-3.61146 17.3153 4.30841 4.20145 15.326 0.896478C28.9867 -3.19745 42.8569 7.18819 42.9987 21.6876ZM21.6631 60.7539C25.7794 54.1374 29.8183 48.0744 33.4027 41.7396C35.9395 37.2545 37.9767 32.4578 40.0139 27.6976C41.5289 24.1573 41.4676 20.428 40.4297 16.6921C37.3256 5.52079 25.947 -0.721202 15.2164 2.94178C5.3399 6.31637 -1.25194 18.0876 3.30594 28.8578C4.27295 31.1451 5.17872 33.4655 6.27468 35.6865C10.5521 44.3352 15.7643 52.3805 21.6631 60.7539Z" fill="black"/>
<path d="M34.3098 22.2264C34.2807 29.4463 28.4786 35.3734 21.4517 35.3668C14.4376 35.3601 8.65158 29.4032 8.63868 22.18C8.62901 14.8275 14.4182 8.9303 21.6032 8.97671C28.6495 9.01981 34.3388 14.9535 34.3098 22.2264ZM21.5516 33.3844C27.5729 33.348 32.4563 28.3259 32.4563 22.1767C32.4531 15.9248 27.4633 10.8165 21.4033 10.8563C15.3433 10.896 10.3922 16.1137 10.505 22.3325C10.6211 28.5248 15.5142 33.4209 21.5516 33.3844Z" fill="black"/>
</g>
<defs>
<clipPath id="clip0">
<rect width="43" height="63" fill="white"/>
</clipPath>
</defs>
</svg>
